<?xml version="1.0" encoding="utf-8"?>
<!-- Generator: Adobe Illustrator 14.0.0, SVG Export Plug-In . SVG Version: 6.00 Build 43363)  -->
<!DOCTYPE svg PUBLIC "-//W3C//DTD SVG 1.1//EN" "http://www.w3.org/Graphics/SVG/1.1/DTD/svg11.dtd">
<svg version="1.1" id="Layer_1" xmlns="http://www.w3.org/2000/svg" xmlns:xlink="http://www.w3.org/1999/xlink" x="0px" y="0px"
	 width="884px" height="128px" viewBox="0 0 884 128" enable-background="new 0 0 884 128" xml:space="preserve">
<g transform="translate(0.000000,128.000000) scale(0.100000,-0.100000)">
	<path fill="#E43904" d="M397.002,1264.653c-88.003-32.002-88.003-35-85-648.003c2.998-570,1.997-557.998,60.996-593.994
		C403.999,4.648,431.001,3.652,950,3.652c522.002,0,546.001,0.996,577.002,19.004C1585,58.652,1585,53.652,1585,643.652
		c0,513.999-1.001,542.002-18.999,572.002c-36.001,58.999-23.003,57.998-601.001,60C535,1277.651,427.998,1275.654,397.002,1264.653
		z M920,873.652v-25H800H680v-95v-95h100h100v-25v-25H780H680v-120v-120h-40h-40v265v265h160h160V873.652z M1310,873.652v-25h-120
		h-120v-95v-95h100h100v-25v-25h-100h-100v-120v-120h-35h-35v265v265h155h155V873.652z"/>
	<path fill="#FFFFFF" d="M8419.999,755c0-389.004,2.002-399.004,64.004-410.996c18.994-3.008,38.994-3.008,45,0.996
		c20,10.996,11.992,50-11.006,60l-22.998,10l-2.998,342.998L8489.999,1100h-35h-35V755z"/>
	<path fill="#FFFFFF" d="M3080,720V350h35h35l2.002,192.002L3155,733.999l42.998,33.003c50,37.998,101.006,50,140,33.999
		c52.998-22.002,57.002-38.999,60-253.003L3402.002,350h33.994H3470v187.998c0,104.004-5,204.004-10.996,226.001
		c-15,53.999-56.006,92.002-107.002,101.001c-57.002,8.999-92.998,0-152.002-41.001L3150,790v150v150h-35h-35V720z"/>
	<path fill="#FFFFFF" d="M2383.999,1045c-15-22.998-15-27.002,0-50c28.003-42.998,86.001-26.001,86.001,25
		C2470,1071.001,2412.002,1087.998,2383.999,1045z"/>
	<path fill="#FFFFFF" d="M5247.998,1058.999c-35.996-20-12.002-88.999,31.006-88.999c20.996,0,50.996,30,50.996,52.002
		c0,17.998-30.996,47.998-50.996,47.998C5270.996,1070,5257.001,1065,5247.998,1058.999z"/>
	<path fill="#FFFFFF" d="M7647.998,1058.999c-25-13.999-23.994-65,1.006-78.999c30.996-16.001,48.994-12.002,66.992,15
		c15,22.998,15,27.002,0,50C7699.003,1071.001,7675.996,1076.001,7647.998,1058.999z"/>
	<path fill="#FFFFFF" d="M1880,695V350h35h35v160v160h135h135v30v30h-135h-135v125v125h160h160v30v30h-195h-195V695z"/>
	<path fill="#FFFFFF" d="M4730,695V350h40h40v160v160h130h130v30v30h-130h-130v125v125h155h155v30v30h-195h-195V695z"/>
	<path fill="#FFFFFF" d="M2707.998,858.999c-20.996-6.001-50.996-26.001-67.998-45c-23.999-27.998-30-42.998-30-81.997
		c1.001-69.004,27.998-96.001,145-142.002c105-40.996,133.999-72.002,121.001-125.996C2867.998,432.998,2815,400,2773.999,400
		c-38.999,0-91.001,17.002-126.997,42.002c-27.002,20-27.002,20-47.002-4.004c-17.998-22.002-17.998-23.994-2.002-37.002
		c30-22.998,99.004-50.996,144.004-56.992c125.996-17.002,231.997,77.998,198.999,177.998c-17.002,50-46.001,73.994-140,110.996
		C2698.999,675,2680,690,2680,732.998c0,68.003,78.999,96.001,165,58.003c36.001-16.001,51.001-18.003,61.001-10
		c23.999,20,15,37.998-27.002,58.999C2830,865,2758.999,872.998,2707.998,858.999z"/>
	<path fill="#FFFFFF" d="M3777.998,861.001c-82.002-27.002-152.002-106.001-163.994-187.002c-20-136.997,17.998-241.997,110-298.999
		c42.998-25.996,58.994-30,120-30c55.996,0.996,80.996,5.996,118.994,25.996c46.006,24.004,47.002,25,32.002,47.002
		c-15,20-17.998,21.006-42.998,7.998c-120-60.996-250,1.006-275,132.002L3670.996,590h181.006h180.996l-5,63.999
		C4017.001,780,3955,856.001,3854.004,865C3827.002,867.002,3792.998,865,3777.998,861.001z M3909.004,782.002
		c28.994-21.001,45.996-51.001,55-99.004L3970,650h-145c-140,0-145,1.001-145,20c0,45,49.004,107.998,100,128.999
		C3814.004,813.999,3877.998,805,3909.004,782.002z"/>
	<path fill="#FFFFFF" d="M4324.003,856.001c-17.002-8.003-44.004-30-60-48.999c-15-20-32.002-33.003-36.006-31.001
		c-3.994,2.998-7.998,22.998-7.998,45c0,36.997-2.002,38.999-30,38.999h-30V605V350h35h35v167.998c0,155,2.002,170,22.998,207.002
		c30,52.998,81.006,87.002,127.002,82.998c32.998-2.998,35-0.996,35,27.002c0,26.001-4.004,30-30,32.002
		C4369.003,868.999,4340.996,862.998,4324.003,856.001z"/>
	<path fill="#FFFFFF" d="M5672.001,855c-19.004-7.998-51.006-28.999-72.002-45l-39.004-31.001l-2.998,38.003
		c-2.998,32.998-7.002,37.998-30,40.996L5500,861.001V605.996V350h35h35l2.002,192.002L5575,733.999l42.998,33.003
		c50,37.998,101.006,50,140,33.999c52.998-22.002,57.002-38.999,60-253.003L5822.001,350h33.994h35l-2.998,207.998
		c-2.998,224.004-10,253.003-62.002,287.002C5790.996,867.998,5710.996,872.998,5672.001,855z"/>
	<path fill="#FFFFFF" d="M6195,862.998c-35-8.999-135-55-135-61.997c0-3.999,5.996-15,12.998-23.999
		c11.006-16.001,17.002-15,76.006,8.999c78.994,31.997,133.994,28.999,167.998-10c20.996-25,40.996-91.001,30.996-102.002
		c-2.998-1.997-33.994-8.999-67.998-15c-187.002-29.995-270.996-106.001-240-218.003c27.998-105,155.996-128.994,270.996-50.996
		L6355,419.004l2.998-34.004c2.998-30.996,6.006-35,32.998-35h30l-2.998,197.998C6415,766.001,6407.001,800,6349.003,841.001
		C6320,862.002,6235,873.999,6195,862.998z M6350,545.996c0-67.998-2.002-75.996-25.996-95C6232.998,380,6125,389.004,6105,470.996
		c-15,62.002,47.998,117.002,157.998,138.008C6352.998,627.002,6350,629.004,6350,545.996z"/>
	<path fill="#FFFFFF" d="M6770.996,857.002c-17.998-7.002-50-27.002-70.996-44.004c-20.996-17.998-40-28.999-44.004-25.996
		c-2.998,3.999-5.996,20.996-5.996,40c0,30-2.998,32.998-30,32.998h-30V605V350h35h35v187.998V725l40,32.998
		c50,41.001,90.996,56.001,134.004,48.003c66.992-13.003,70.996-23.999,73.994-251.997L6910.996,350h41.006h40l-4.004,197.998
		c-3.994,216.001-12.998,253.003-68.994,295C6885.996,867.002,6815.996,873.999,6770.996,857.002z"/>
	<path fill="#FFFFFF" d="M7300,861.001C7185,823.999,7127.998,742.002,7125.996,610c-0.996-95.996,21.006-155,78.008-207.998
		c75.996-71.006,195-79.004,281.992-19.004c30,20,31.006,22.002,17.002,42.998l-13.994,23.008l-46.006-25
		c-57.002-30-95.996-30-152.998-1.006c-60,30-90,87.002-90,174.004c0,70.996,17.998,125,57.002,165
		c50,51.997,132.002,60,185.996,17.998c24.004-18.999,25-18.999,42.002,0c10,11.001,15,25,12.002,32.998
		C7482.998,848.999,7357.001,880,7300,861.001z"/>
	<path fill="#FFFFFF" d="M7989.999,851.001c-55-17.002-100-41.001-100-51.001c0-3.999,5.996-13.999,12.998-23.999
		c12.998-17.002,15-17.002,57.998,5c30,16.001,62.002,22.998,102.002,22.998c52.002,1.001,61.006-1.997,82.002-26.997
		c22.998-25,42.998-92.002,32.998-103.003c-2.998-1.997-30.996-8.999-62.998-13.999c-185.996-30-270-100-250.996-205
		c20.996-112.002,151.992-147.002,265-70c27.998,17.998,51.992,30,55,27.002c2.998-2.998,5.996-17.998,5.996-34.004
		c0-25,4.004-27.998,30.996-27.998h31.006l-4.004,197.998c-2.998,183.003-5,200-25.996,240
		C8180.995,863.999,8099.003,886.001,7989.999,851.001z M8177.997,542.998l-2.998-77.002L8125.995,435
		c-68.994-42.002-136.992-42.998-172.998-0.996c-20,22.998-23.994,36.992-20,63.994c7.002,40,21.006,57.998,59.004,77.998
		c35,18.008,125,42.002,160.996,43.008l27.998,0.996L8177.997,542.998z"/>
	<path fill="#FFFFFF" d="M2390,605V350h35h35v255v255h-35h-35V605z"/>
	<path fill="#FFFFFF" d="M5240,605V350h35h35v255v255h-35h-35V605z"/>
	<path fill="#FFFFFF" d="M7640,605V350h35h35v255v255h-35h-35V605z"/>
</g>
</svg>
