<?xml version="1.0" encoding="utf-8"?>
<!-- Generator: Adobe Illustrator 14.0.0, SVG Export Plug-In . SVG Version: 6.00 Build 43363)  -->
<!DOCTYPE svg PUBLIC "-//W3C//DTD SVG 1.1//EN" "http://www.w3.org/Graphics/SVG/1.1/DTD/svg11.dtd">
<svg version="1.1" id="Layer_1" xmlns="http://www.w3.org/2000/svg" xmlns:xlink="http://www.w3.org/1999/xlink" x="0px" y="0px"
	 width="648px" height="139.902px" viewBox="0 0 648 139.902" enable-background="new 0 0 648 139.902" xml:space="preserve">
<g>
	<path fill="#CFB53B" d="M87.671,129.901c-17.164-9.93-31.559-24.205-41.633-41.285C35.657,71.011,30.164,50.847,30.156,30.304
		l-0.002-5.078l4.395-2.543C51.965,12.608,71.859,7.282,92.081,7.282c20.219,0,40.111,5.324,57.524,15.397L154,25.222l-0.002,5.078
		c-0.008,20.544-5.499,40.709-15.881,58.314c-10.073,17.081-24.47,31.357-41.633,41.287l-4.406,2.549L87.671,129.901z"/>
	<path fill="#CFB53B" d="M147.402,26.488c-16.745-9.686-35.875-14.806-55.322-14.806c-19.449,0-38.581,5.122-55.328,14.811
		l-2.198,1.271l0.001,2.539c0.008,19.759,5.289,39.15,15.272,56.078c9.689,16.43,23.536,30.161,40.045,39.712l2.203,1.274
		l2.203-1.274c16.509-9.551,30.357-23.283,40.046-39.713c9.984-16.929,15.265-36.322,15.271-56.081l0.001-2.54L147.402,26.488z"/>
	<g>
		<path d="M84.495,49.28h-1.624c0.34-1.684,0.511-2.767,0.511-3.248c0-0.662-0.231-1.153-0.691-1.474
			c-0.46-0.321-1.332-0.481-2.613-0.481l-1.922,0.03l-0.63-0.03h-6.008c-0.121,0.461-0.442,1.634-0.964,3.519
			c-1.084,3.89-1.908,7.079-2.47,9.565h5.859c1.422,0,2.343-0.141,2.764-0.421c0.42-0.28,0.771-0.993,1.051-2.135h1.624
			c-0.622,2.526-1.163,5.164-1.624,7.91h-1.654c0.14-1.143,0.21-1.814,0.21-2.015c0-0.481-0.241-0.842-0.721-1.083
			c-0.281-0.141-1.042-0.23-2.284-0.271h-5.739c-0.581,2.788-1.342,5.795-2.284,9.023c-0.941,3.229-1.752,5.726-2.433,7.489
			c1.601,0.262,3.031,0.392,4.292,0.392c0.82,0,1.63-0.061,2.431-0.181l-0.511,1.714c-0.582,0.061-1.124,0.091-1.625,0.091
			c-0.441,0-1.825-0.071-4.151-0.211c-1.383-0.101-2.557-0.15-3.519-0.15c-1.945,0-4.021,0.181-6.226,0.542l0.361-1.654
			c1.784-0.381,2.963-0.782,3.534-1.203c0.572-0.422,1.008-0.933,1.309-1.534c0.621-1.223,1.784-5.013,3.489-11.37l4.602-18.017
			c-2.687,0.081-5.038,0.682-7.053,1.805c-2.015,1.123-3.62,2.632-4.813,4.526c-1.193,1.895-1.79,3.815-1.79,5.76
			c0,0.782,0.1,1.584,0.301,2.406c0.1,0.461,0.381,1.123,0.842,1.985c0.581,1.063,0.872,1.805,0.872,2.226
			c0,0.421-0.171,0.787-0.511,1.098c-0.341,0.311-0.782,0.466-1.324,0.466c-0.802,0-1.454-0.421-1.955-1.263
			c-0.682-1.123-1.022-2.717-1.022-4.783c0-4.03,1.574-7.74,4.722-11.129c3.148-3.369,7.299-5.053,12.453-5.053h11.55
			c1.283,0,2.697-0.08,4.241-0.241c0.46-0.04,1.453-0.25,2.978-0.632C85.307,45.44,84.695,48.118,84.495,49.28z"/>
	</g>
	<path d="M92.081,11.682c-0.002,0-0.002,0-0.004,0v115.685l2.204-1.274c16.509-9.551,30.357-23.283,40.046-39.714
		c9.984-16.928,15.265-36.321,15.271-56.081l0.001-2.539l-2.197-1.271C130.657,16.801,111.527,11.682,92.081,11.682z"/>
	<g>
		<path fill="#CFB53B" d="M137.009,49.28h-1.625c0.341-1.684,0.511-2.767,0.511-3.248c0-0.662-0.231-1.153-0.691-1.474
			c-0.46-0.321-1.331-0.481-2.613-0.481l-1.923,0.03l-0.63-0.03h-6.008c-0.12,0.461-0.441,1.634-0.963,3.519
			c-1.085,3.89-1.908,7.079-2.47,9.565h5.859c1.422,0,2.343-0.141,2.764-0.421c0.42-0.28,0.771-0.993,1.052-2.135h1.625
			c-0.622,2.526-1.164,5.164-1.625,7.91h-1.654c0.14-1.143,0.21-1.814,0.21-2.015c0-0.481-0.24-0.842-0.722-1.083
			c-0.28-0.141-1.042-0.23-2.283-0.271h-5.74c-0.581,2.788-1.343,5.795-2.284,9.023c-0.941,3.229-1.752,5.726-2.433,7.489
			c1.601,0.262,3.032,0.392,4.292,0.392c0.82,0,1.63-0.061,2.431-0.181l-0.511,1.714c-0.583,0.061-1.124,0.091-1.625,0.091
			c-0.441,0-1.825-0.071-4.15-0.211c-1.384-0.101-2.557-0.15-3.52-0.15c-1.945,0-4.021,0.181-6.226,0.542l0.361-1.654
			c1.785-0.381,2.963-0.782,3.534-1.203c0.572-0.422,1.008-0.933,1.309-1.534c0.621-1.223,1.784-5.013,3.489-11.37l4.602-18.017
			c-2.688,0.081-5.038,0.682-7.053,1.805c-2.015,1.123-3.62,2.632-4.813,4.526c-1.193,1.895-1.79,3.815-1.79,5.76
			c0,0.782,0.1,1.584,0.301,2.406c0.1,0.461,0.38,1.123,0.842,1.985c0.581,1.063,0.872,1.805,0.872,2.226
			c0,0.421-0.171,0.787-0.511,1.098c-0.342,0.311-0.782,0.466-1.323,0.466c-0.803,0-1.455-0.421-1.955-1.263
			c-0.682-1.123-1.023-2.717-1.023-4.783c0-4.03,1.574-7.74,4.722-11.129c3.147-3.369,7.298-5.053,12.453-5.053h11.55
			c1.283,0,2.696-0.08,4.241-0.241c0.461-0.04,1.453-0.25,2.978-0.632C137.821,45.44,137.209,48.118,137.009,49.28z"/>
	</g>
</g>
<g>
	<path fill="#F2F2F2" d="M187.008,46.159h26.138v5.256h-19.802v16.129h18.29v5.185h-18.29v21.962h-6.336V46.159z"/>
	<path fill="#F2F2F2" d="M227.113,50.047c0,2.16-1.512,3.889-4.032,3.889c-2.304,0-3.816-1.729-3.816-3.889s1.584-3.96,3.96-3.96
		C225.529,46.087,227.113,47.815,227.113,50.047z M220.057,94.691V59.84h6.336v34.851H220.057z"/>
	<path fill="#F2F2F2" d="M236.041,88.283c1.944,1.152,5.256,2.447,8.424,2.447c4.537,0,6.697-2.231,6.697-5.184
		c0-3.024-1.8-4.609-6.409-6.337c-6.336-2.304-9.289-5.688-9.289-9.865c0-5.617,4.608-10.225,12.025-10.225
		c3.528,0,6.625,0.937,8.497,2.16l-1.512,4.608c-1.368-0.864-3.889-2.088-7.129-2.088c-3.744,0-5.76,2.16-5.76,4.752
		c0,2.88,2.016,4.176,6.552,5.976c5.977,2.232,9.145,5.257,9.145,10.441c0,6.192-4.825,10.513-12.961,10.513
		c-3.816,0-7.344-1.008-9.792-2.448L236.041,88.283z"/>
	<path fill="#F2F2F2" d="M265.416,43.566h6.336v21.818h0.144c1.008-1.8,2.592-3.456,4.537-4.536c1.872-1.08,4.104-1.729,6.48-1.729
		c4.681,0,12.169,2.88,12.169,14.833v20.738h-6.336V74.673c0-5.617-2.088-10.297-8.064-10.297c-4.104,0-7.273,2.88-8.497,6.264
		c-0.36,0.936-0.432,1.873-0.432,3.025v21.025h-6.336V43.566z"/>
	<path fill="#F2F2F2" d="M308.904,78.417c0.144,8.568,5.544,12.098,11.953,12.098c4.537,0,7.344-0.793,9.649-1.801l1.152,4.537
		c-2.232,1.008-6.121,2.231-11.666,2.231c-10.729,0-17.137-7.128-17.137-17.642c0-10.513,6.192-18.722,16.345-18.722
		c11.45,0,14.401,9.937,14.401,16.346c0,1.296-0.072,2.231-0.215,2.952H308.904z M327.481,73.881
		c0.072-3.96-1.656-10.225-8.785-10.225c-6.48,0-9.217,5.833-9.721,10.225H327.481z"/>
	<path fill="#F2F2F2" d="M341.447,70.713c0-4.104-0.072-7.633-0.289-10.873h5.545l0.289,6.913h0.215
		c1.584-4.68,5.473-7.633,9.721-7.633c0.648,0,1.152,0.072,1.729,0.144v5.977c-0.648-0.144-1.297-0.144-2.16-0.144
		c-4.465,0-7.633,3.313-8.496,8.065c-0.145,0.863-0.217,1.943-0.217,2.951v18.578h-6.336V70.713z"/>
	<path fill="#F2F2F2" d="M380.398,46.159h26.139v5.256h-19.803v16.129h18.289v5.185h-18.289v21.962h-6.336V46.159z"/>
	<path fill="#F2F2F2" d="M420.504,50.047c0,2.16-1.514,3.889-4.033,3.889c-2.305,0-3.816-1.729-3.816-3.889s1.584-3.96,3.961-3.96
		C418.918,46.087,420.504,47.815,420.504,50.047z M413.447,94.691V59.84h6.336v34.851H413.447z"/>
	<path fill="#F2F2F2" d="M430.295,69.273c0-3.672-0.072-6.553-0.289-9.433h5.617l0.359,5.761h0.145
		c1.729-3.24,5.76-6.481,11.521-6.481c4.824,0,12.313,2.88,12.313,14.833v20.738h-6.336v-20.09c0-5.616-2.09-10.297-8.066-10.297
		c-4.104,0-7.344,2.952-8.496,6.48c-0.287,0.792-0.432,1.873-0.432,2.953v20.953h-6.336V69.273z"/>
	<path fill="#F2F2F2" d="M494.734,86.338c0,3.024,0.145,5.977,0.504,8.353h-5.688l-0.504-4.393h-0.217
		c-1.943,2.736-5.688,5.185-10.656,5.185c-7.057,0-10.656-4.968-10.656-10.009c0-8.425,7.488-13.033,20.953-12.961v-0.721
		c0-2.808-0.793-8.064-7.92-7.992c-3.313,0-6.697,0.936-9.146,2.592l-1.439-4.249c2.881-1.8,7.129-3.024,11.521-3.024
		c10.656,0,13.248,7.273,13.248,14.186V86.338z M488.615,76.906c-6.914-0.145-14.762,1.08-14.762,7.848
		c0,4.177,2.736,6.049,5.904,6.049c4.609,0,7.561-2.88,8.568-5.832c0.217-0.721,0.289-1.44,0.289-2.016V76.906z"/>
	<path fill="#F2F2F2" d="M504.957,69.273c0-3.672-0.072-6.553-0.289-9.433h5.617l0.359,5.761h0.145
		c1.729-3.24,5.76-6.481,11.521-6.481c4.824,0,12.313,2.88,12.313,14.833v20.738h-6.336v-20.09c0-5.616-2.09-10.297-8.066-10.297
		c-4.104,0-7.344,2.952-8.496,6.48c-0.287,0.792-0.432,1.873-0.432,2.953v20.953h-6.336V69.273z"/>
	<path fill="#F2F2F2" d="M569.758,93.466c-1.656,0.793-5.328,2.017-10.01,2.017c-10.512,0-17.354-7.128-17.354-17.786
		c0-10.728,7.346-18.577,18.723-18.577c3.744,0,7.057,0.937,8.783,1.873l-1.439,4.824c-1.512-0.792-3.889-1.656-7.344-1.656
		c-7.994,0-12.314,5.977-12.314,13.177c0,8.064,5.186,13.033,12.098,13.033c3.6,0,5.977-0.864,7.777-1.656L569.758,93.466z"/>
	<path fill="#F2F2F2" d="M584.229,50.047c0,2.16-1.514,3.889-4.033,3.889c-2.305,0-3.816-1.729-3.816-3.889s1.584-3.96,3.961-3.96
		C582.643,46.087,584.229,47.815,584.229,50.047z M577.172,94.691V59.84h6.336v34.851H577.172z"/>
	<path fill="#F2F2F2" d="M618.5,86.338c0,3.024,0.145,5.977,0.504,8.353h-5.688l-0.504-4.393h-0.217
		c-1.943,2.736-5.688,5.185-10.656,5.185c-7.057,0-10.656-4.968-10.656-10.009c0-8.425,7.488-13.033,20.953-12.961v-0.721
		c0-2.808-0.793-8.064-7.92-7.992c-3.313,0-6.697,0.936-9.146,2.592l-1.439-4.249c2.881-1.8,7.129-3.024,11.521-3.024
		c10.656,0,13.248,7.273,13.248,14.186V86.338z M612.381,76.906c-6.914-0.145-14.762,1.08-14.762,7.848
		c0,4.177,2.736,6.049,5.904,6.049c4.609,0,7.561-2.88,8.568-5.832c0.217-0.721,0.289-1.44,0.289-2.016V76.906z"/>
	<path fill="#F2F2F2" d="M628.723,43.566h6.336v51.125h-6.336V43.566z"/>
</g>
</svg>
